<svg xmlns="http://www.w3.org/2000/svg" viewBox="0 0 1253 234"><defs><style>.cls-1{fill:#fff;}.cls-2{fill:#b39247;}.cls-3{fill:#d60d34;}</style></defs><g id="Layer_1" data-name="Layer 1"><path class="cls-1" d="M248.3,131.09a31.53,31.53,0,0,1-2.75-1.87c-.19-.16-.2-.25-.2-.28a1.29,1.29,0,0,1,.25-.66l3.1-2.81c6.32-4.76,7.05-15.39,7.08-15.93-.11-8.3-7.94-10.59-12.08-10.63l-12.23,0a4.82,4.82,0,0,0-4.84,3.42l-9.7,38.09a3.13,3.13,0,0,0,.32,2.63,3,3,0,0,0,2.6,1.1h0l6.86.12a3.23,3.23,0,0,0,2.74-3.13,12.21,12.21,0,0,1,1.58-6c.39-.61.73-.61.87-.61,1.09,0,3,1.7,4.08,3.72,1.93,3.46,4.7,5.69,7.61,6.13a4.7,4.7,0,0,0,.63,0c2.78,0,4.36-2.86,4.66-5.55l1-4C250.36,133,249.87,131.87,248.3,131.09Zm-6.45-14.57-.07.11c-.15.35-1.19,1.86-1.19,1.86a6.6,6.6,0,0,1-4.94,2.42c-1.45.12-.92-1.44-.92-1.44l1.45-6.13a2.4,2.4,0,0,1,2.52-1.86l2,.25s1.84.08,1.82,2.68A7.09,7.09,0,0,1,241.85,116.52Zm43.89,0a2.9,2.9,0,0,1,.3,2.68l-1.43,4.87a5,5,0,0,1-4.9,3.32l-8.92-.17a2,2,0,0,0-1.87,1.87l-.55,2.48c0,.14-.17.55,0,.8s.47.49,1.89.49l9.36-.13a5.42,5.42,0,0,1,2,.45c.34.17,2,1.16,1.1,4.6l-.71,4.08c0,.87-1,2.83-4.54,2.66l-20.13.06a3.31,3.31,0,0,1-2.7-1.15,4.24,4.24,0,0,1-.67-3.27l9.1-37.34c.16-1.22,1.64-3.81,6.13-3.64,1.16,0,3.05.07,5.64.07,5.64,0,12.61-.12,12.61-.12a2.92,2.92,0,0,1,2.18,1A3.26,3.26,0,0,1,290,103l-.95,4.38c-.09.29-1.31,3.84-5.9,3.38l-8.36-.12s-1.5.13-1.67,1.24l-.69,3.1a.28.28,0,0,0,0,.18,1.59,1.59,0,0,0,1,.22l10,.05A3,3,0,0,1,285.74,116.54ZM217.59,92.31a17.55,17.55,0,0,0-13.1-6.57h0L188,85.88c-8.08,0-9.21,5.22-9.35,6.18L167,139.73a4.87,4.87,0,0,0,.71,3.63,2.38,2.38,0,0,0,1.91.86l7.65-.11c1.59,0,4.47-1.07,5.22-5.11l1-6c.27-2.71,2-4.08,5-4.08a7.79,7.79,0,0,1,1.21.09l1.71.2H192c2.18,0,9.75-.29,15.59-4.06,6.72-4.32,10.57-12.82,10.76-13.25S223.05,99.09,217.59,92.31ZM169.66,143v0h0Zm34.89-38.66c.39,5.1-2.94,7.46-4,8.4s-4.31,1.61-7.57,1-2.43-4.21-2.43-4.21l1.26-5.58c1.13-4.87,5.33-4.1,5.33-4.1l3.42.26A4.27,4.27,0,0,1,204.55,104.34Zm180.14,15.27-1.43,4.88a5,5,0,0,1-4.9,3.31l-8.92-.16a2,2,0,0,0-1.88,1.86L367,132c0,.13-.16.54,0,.79s.47.49,1.88.49l9.37-.13a5.42,5.42,0,0,1,2,.45c.34.17,2,1.16,1.1,4.6l-.72,4.09c0,.87-1,2.83-4.53,2.66L356,145a3.31,3.31,0,0,1-2.7-1.15,4.2,4.2,0,0,1-.67-3.27l9.1-37.35c.16-1.22,1.59-3.85,6.13-3.64,1.15,0,3,.07,5.64.07,5.64,0,12.61-.11,12.61-.11h0a2.69,2.69,0,0,1,2.16,1,3.28,3.28,0,0,1,.4,2.9l-.95,4.38c-.09.28-1.33,3.83-5.9,3.38l-8.36-.13s-1.5.13-1.67,1.25l-.69,3.09a.28.28,0,0,0,0,.18c.07.08.36.23,1,.23l10,0a3,3,0,0,1,2.27,1.1A2.9,2.9,0,0,1,384.69,119.61Zm-48.17-18.9A3.26,3.26,0,0,0,334,99.53h-3.54c-3.31-.22-4.6,1.47-4.68,1.59l-11.43,14.11a5.75,5.75,0,0,1-.84.86.21.21,0,0,1-.06-.1l-5.89-14.12a3.55,3.55,0,0,0-3.36-2.61h-.28l-3.88.12c-3.58.13-4.21,2.81-4.23,2.9l-9.38,38.79a2.77,2.77,0,0,0,3,3.7h4.68c2.84.13,4-1.71,4.14-3l1.85-7.86,2.36-8.81a6.65,6.65,0,0,1,.64-1.09,1.32,1.32,0,0,1,.36.38s2.54,4.75,3.66,7.15a3.11,3.11,0,0,0,2.84,2.07,3.65,3.65,0,0,0,2.26-.88l1.63-1.66a31,31,0,0,1,5.37-4.85c0,.14-.05.27-.08.4-.14.54-3.49,13.31-3.78,15a2.81,2.81,0,0,0,.43,2.29,2.28,2.28,0,0,0,1.65.9l5.55,0a4.42,4.42,0,0,0,4.48-3l9.45-37.9A3.55,3.55,0,0,0,336.52,100.71ZM323,143.58h0Zm93.32-11.78a28.77,28.77,0,0,1-2.75-1.87c-.2-.15-.2-.25-.21-.28a1.33,1.33,0,0,1,.26-.66l3.09-2.81c6.33-4.76,7-15.39,7.09-15.93-.12-8.3-7.95-10.59-12.08-10.63l-12.24-.05a4.83,4.83,0,0,0-4.84,3.42l-9.69,38.1a3.07,3.07,0,0,0,.32,2.62,3,3,0,0,0,2.59,1.1h0l6.87.12a3.22,3.22,0,0,0,2.73-3.13,12.08,12.08,0,0,1,1.58-6c.39-.62.73-.62.88-.62,1.09,0,3,1.7,4.08,3.72,1.92,3.46,4.7,5.69,7.61,6.13a4.7,4.7,0,0,0,.63,0c2.78,0,4.35-2.86,4.66-5.55l1-4C418.32,133.75,417.83,132.58,416.27,131.8Zm-6.34-14.59-.06.11c-.16.35-1.19,1.86-1.19,1.86a6.62,6.62,0,0,1-4.94,2.42c-1.46.12-.93-1.44-.93-1.44l1.45-6.13a2.4,2.4,0,0,1,2.52-1.86l2,.25s1.85.07,1.83,2.67A7,7,0,0,1,409.93,117.21Zm-54.64-13.79-9.14,37.39c-.55,3.57-3.24,4-3.36,4h-6.66a2.85,2.85,0,0,1-2.46-1.19,3.18,3.18,0,0,1-.17-2.69L343,102.66a4.19,4.19,0,0,1,4.17-3l5.44,0a2.46,2.46,0,0,1,2,.86,3.22,3.22,0,0,1,.66,2.61Z"/><path class="cls-1" d="M509.92,103.57a16,16,0,0,1,2.66.19s11.54,1.29,8.52,16.95l-.51,2.27s-.47,3.06-4.47,3.06h-.27l-16.4.14h0c-.16,0-2.06,0-1.65,1.85s3.78,3,4.07,3.09a26.81,26.81,0,0,0,4,.26,22.26,22.26,0,0,0,9.84-2,5.44,5.44,0,0,1,1.38-.21c.84,0,1.68.31,1.29,1.69-.72,2.52-1.46,5.85-1.46,5.85s-.24,1.16-2.9,2.59a26.88,26.88,0,0,1-11.26,2.22c-.61,0-1.23,0-1.87-.05-8-.46-12.74-4-13.67-10a28,28,0,0,1,2.45-14.32l.19-.44c6-11.58,15.48-13.1,20.08-13.1m-3.5,13.72a6.31,6.31,0,0,0,2.32-.29c.41-.06,1.63-.75.42-1.88a3.74,3.74,0,0,0-2.56-1,2.15,2.15,0,0,0-.32,0l-.29,0a5.12,5.12,0,0,0-3.09,1.47c-.85,1.17.11,1.36.53,1.39l1.5.15c.57,0,1.06.07,1.49.07m3.5-17.46c-4.69,0-16.36,1.48-23.39,15.13a1.74,1.74,0,0,0-.1.19l-.18.41A31.74,31.74,0,0,0,483.5,132V132c1.21,7.82,7.46,12.62,17.14,13.18.7,0,1.4.06,2.09.06a30.64,30.64,0,0,0,13-2.62l.09,0c3.58-1.93,4.52-4,4.76-5.07,0-.18.75-3.31,1.41-5.62a5.15,5.15,0,0,0-.3-3.91,7.52,7.52,0,0,0,2.61-4.27l.48-2.19a.44.44,0,0,0,0-.1c1.27-6.55.44-11.86-2.44-15.79a14.32,14.32,0,0,0-9.17-5.56,19.9,19.9,0,0,0-3.23-.24Z"/><path class="cls-1" d="M547.77,95.42l.64.07c1.84.41,1,3.18,1,3.18l-1.23,4.83a.67.67,0,0,0,.72.85.8.8,0,0,0,.27,0,10,10,0,0,1,1.75-.16c2.12.2,1.55,1.65,1.55,1.65l-1.6,6.54c-.26,1.25-1.5,1.79-3.05,1.94s-1.37.2-1.95.59-1.28,2.71-1.28,2.71l-2.46,10.51c-.19,1.51,1.1,1.68,1.69,1.68h.28a1.62,1.62,0,0,1,.3,0c.95,0,1,.55.88,1s-1.34,6.32-1.34,6.32a4.67,4.67,0,0,1-4.65,3.68h-.06l-5.44-.16c-5.16-.33-2.92-9.52-2.92-9.52l3.55-14.26c.74-2.13-.68-2.47-.68-2.47a1.25,1.25,0,0,1-.91-1.54l1.64-6.59a2.2,2.2,0,0,1,2.25-1.94h.13c.83,0,1-1.17,1-1.17l1.05-4.72a3.28,3.28,0,0,1,2.58-2.76l6.35-.23m0-3.73h-.13l-6.36.23-.36,0a7,7,0,0,0-5.73,5.69l-.75,3.34a5.81,5.81,0,0,0-3.67,4.5l-1.61,6.43a5,5,0,0,0,1.38,4.87L527.2,130.2c-.3,1.24-1.66,7.57,1.14,11.37a6.83,6.83,0,0,0,5.15,2.78h.14l5.42.15h.19a8.35,8.35,0,0,0,8.29-6.59c.87-3.94,1.34-6.15,1.4-6.61a4.4,4.4,0,0,0-2.61-4.93l1.83-7.83c.06-.19.13-.39.2-.58,4.62-.53,5.8-3.45,6.11-4.78L556,106.8a4.84,4.84,0,0,0-.5-3.92,5,5,0,0,0-2.83-2.16l.26-1a7.16,7.16,0,0,0-.4-5.41,5,5,0,0,0-3.34-2.42,2.2,2.2,0,0,0-.37-.06l-.63-.08a3.24,3.24,0,0,0-.44,0Z"/><path class="cls-1" d="M452.05,89.65c.22,0,.46,0,.7,0h15.09c.51,0,11.86.09,12.75,8.72a16.49,16.49,0,0,1-5.17,13.86,27.93,27.93,0,0,1-2.71,1.68s-1,.38,0,1c0,0,5.67,3.09,2.86,12.42,0,0-3.18,12.29-14.58,13.18,0,0-1.47.14-4.22.22l-17,0-1.93,0c-1.83-.09-1.24-3.79-1.24-3.79l11.07-44.72s.41-2.59,4.37-2.59m10.52,17.6s4-.37,4.16-3.22a2.47,2.47,0,0,0-2.47-2.83h0l-1.62-.13a3.52,3.52,0,0,0-.57,0,3.6,3.6,0,0,0-3.69,2.53s-1.31,3.48.79,3.64l3.4,0m-7.5,21.51c2.67,0,5.53-.17,6.94-1.87,1.56-1.88,1-4.89-.29-5.47a10.14,10.14,0,0,0-3.84-.69,9,9,0,0,0-2.82.41,3.14,3.14,0,0,0-1.9,1.81l0,.1-.86,3.17s-.89,2.52,2,2.54h.82m-3-42.85h0c-5.44,0-7.58,3.49-8,5.52L433,136.06a1.7,1.7,0,0,0-.06.31c-.2,1.21-.47,4.25,1.2,6.31a4.81,4.81,0,0,0,3.54,1.8h.23l1.9,0,16.95,0h.11c2.64-.07,4.18-.21,4.44-.23,13.46-1.07,17.48-14.54,17.85-15.88,1.94-6.47.54-10.76-1.21-13.38a20.36,20.36,0,0,0,6.37-17c-.52-5-3.7-8.8-8.95-10.72a23.6,23.6,0,0,0-7.52-1.36h-15l-.82,0Z"/><path class="cls-1" d="M133.16,75.79a46.37,46.37,0,1,0,22.57,40.5A46.38,46.38,0,0,0,133.16,75.79ZM88.65,152.44c-1.19.18-3.25-1.3-2.1-2.55a1.63,1.63,0,0,1,.66-.38c.51-.2,58.36-20.51,60.24-21.17.71-.25,1.48-.52,2,.27s-.09,1.75-.37,2.48c-.38,1-.8,1.92-1.24,2.85s-.93,1.85-1.44,2.75a4.47,4.47,0,0,1-.75,1.15,2.9,2.9,0,0,1-1.28.46C136.09,140.41,89.58,152.3,88.65,152.44Zm63.28-36.51c-.24,1.16-1.38,1.39-2.35,1.89-1.21.63-66.49,30.2-67.06,30.3a1.66,1.66,0,0,1-1.41-.61c-.53-.47-1-1-1.56-1.46-.71-.69-.9-1.58,0-2.22l.52-.34,6.27-4.15,11.28-7.48,13.92-9.22,14.16-9.38,12.1-8,7.75-5.13c.5-.33,1-.68,1.49-1,.95-.58,1.69,0,2,.91a43.66,43.66,0,0,1,2.22,7.75c.24,1.31.42,2.63.54,3.95A15.1,15.1,0,0,1,151.93,115.93ZM69.26,128.88l27.42-53.6a1.22,1.22,0,0,1,.75-.62A42.59,42.59,0,0,1,131.24,79a43,43,0,0,1,4.57,3.15,1.23,1.23,0,0,1,.08,1.87l-60,55.62a1.22,1.22,0,0,1-1.84-.2,42.82,42.82,0,0,1-4.84-9.57A1.28,1.28,0,0,1,69.26,128.88Z"/></g><g id="Livello_1" data-name="Livello 1"><rect class="cls-1" x="626.15" y="27.89" width="3.33" height="176.95"/><path class="cls-2" d="M724.25,68.47a1.31,1.31,0,0,0,.59.12.7.7,0,0,0,.54-.3.71.71,0,0,0-.06-.94c-.1-.13-2.91-2.91-5.66-6-3.07-3.42-4.56-6.38-4-8.22a4.39,4.39,0,0,1,3.11-3,16.68,16.68,0,0,1-1.42-3.37,17.64,17.64,0,0,0-3,0,9.88,9.88,0,0,0-4,1.27,6.56,6.56,0,0,0-3.1,4c-1.79,7.35,11.38,13.55,17,16.28"/><path class="cls-2" d="M738.14,67a1.19,1.19,0,0,0,.61.19,1,1,0,0,0,.56-.2.67.67,0,0,0,.11-1c-4.48-5.25-12.63-15.86-9.68-22.43,2.48-4.53,9.42-2.49,11-2.06.89.24,1.57.42,2.05-.27.24-.4-.28-.93-.36-1-4.72-4.68-9-5.75-11.78-5.75a5.24,5.24,0,0,0-.56,0,10.66,10.66,0,0,0-9.3,5.54c-3.44,6.36,2.49,13,6.32,17.39a62.64,62.64,0,0,0,11,9.57"/><path class="cls-2" d="M725.49,58.46l-.21-.24c-.36-.41-.74-.84-1.12-1.29-.74,1.3-.53,3.11.67,5.22A35.44,35.44,0,0,0,728,67s2.31-.25,6.41-.53a59.21,59.21,0,0,1-8.87-8"/><path class="cls-2" d="M741.37,65.51c0,.06.4.43.51.57,2.68-.11,5.41-.2,8.37-.23a60.72,60.72,0,0,1-3.35-17,55.51,55.51,0,0,0-14.19,3.45,59.44,59.44,0,0,0,8.66,13.26"/><path class="cls-2" d="M752.19,30.44a4.25,4.25,0,1,0,2.36,0V26.88h3.79V24.65h-3.79V21h-2.36v3.65H748.4v2.23h3.79Z"/><path class="cls-2" d="M803.92,82.45c-.6-.3-15.92-5.82-50.55-5.83s-50,5.53-50.55,5.83c-.45.47-3.23,16.53-3.23,32.66s3.22,37,14.55,53.53,35,37.35,39.23,39.68c4.19-2.33,27.91-23.16,39.23-39.68s14.55-37.41,14.55-53.53-2.78-32.19-3.23-32.66"/><path class="cls-2" d="M781.42,67.35a.73.73,0,0,0,.48,1.24,1.25,1.25,0,0,0,.58-.12c5.61-2.73,18.78-8.93,17-16.28a6.63,6.63,0,0,0-3.1-4,9.93,9.93,0,0,0-4-1.27,17.74,17.74,0,0,0-3,0,16.61,16.61,0,0,1-1.41,3.37,4.39,4.39,0,0,1,3.11,3c.6,1.84-.89,4.8-4,8.22-2.74,3-5.55,5.83-5.65,6"/><path class="cls-2" d="M766,41.47c1.62-.43,8.56-2.47,11,2.06,2.94,6.57-5.2,17.18-9.68,22.43a.67.67,0,0,0,.11,1,1,1,0,0,0,.55.2,1.21,1.21,0,0,0,.62-.19,62.73,62.73,0,0,0,11-9.57c3.84-4.4,9.77-11,6.33-17.39a10.66,10.66,0,0,0-9.31-5.54,5,5,0,0,0-.55,0c-2.78,0-7.07,1.07-11.79,5.75-.07.08-.59.61-.35,1,.48.69,1.16.51,2.05.27"/><path class="cls-2" d="M782.58,56.93c-.38.45-.76.88-1.12,1.29l-.21.24a59.21,59.21,0,0,1-8.87,8c4.1.28,6.41.53,6.41.53a35.44,35.44,0,0,0,3.12-4.85c1.2-2.11,1.41-3.92.67-5.22"/><path class="cls-2" d="M764.85,66.08c.11-.14.47-.51.52-.57A59.44,59.44,0,0,0,774,52.25a55.61,55.61,0,0,0-14.19-3.45,60.19,60.19,0,0,1-3.36,17c3,0,5.69.12,8.37.23"/><path class="cls-2" d="M753.37,40c-2.13,0-3.91,3.48-3.81,10.57.06,4.36,2,13.53,3.28,15.78.19.32.37.45.53.45s.33-.13.52-.45c1.32-2.25,3.23-11.42,3.29-15.78.1-7.09-1.68-10.57-3.81-10.57"/><path class="cls-2" d="M753.37,69c-13.56,0-24,1-24,1v4.44s10.38-1,24-1,24,1,24,1V70s-10.49-1-24-1"/><path class="cls-1" d="M798.69,86.74c-.53-.24-14.64-4.2-45.32-4.2s-44.79,4-45.32,4.2c-.4.41-2.45,16.36-2.45,30.53s2.86,33.35,12.91,47.89,30.87,33.14,34.86,35.46c4-2.32,24.88-21.07,34.85-35.46s12.92-33.71,12.92-47.89-2-30.12-2.45-30.53"/><path class="cls-3" d="M786,161.75c-9.39,13.39-29.13,31.74-32.61,33.63-3.48-1.89-23.22-20.24-32.61-33.63s-12.07-31.11-12.07-44.19,1.87-27.82,2.26-28.19,13.69-3.66,42.42-3.66,41.92,3.43,42.42,3.66,2.26,15.11,2.26,28.19-2.67,30.78-12.07,44.19"/><path class="cls-1" d="M795,111.81H711.7c-.07,1.91-.11,3.84-.11,5.75,0,7.84,1.13,27.68,11.56,42.56,8.49,12.12,24.89,27.54,30.22,31.75,5.33-4.21,21.73-19.63,30.22-31.75,10.43-14.88,11.55-34.72,11.55-42.56,0-1.91,0-3.84-.1-5.75"/><path class="cls-3" d="M795,111.81a200.18,200.18,0,0,0-1.72-20.11c-4.05-.89-16.73-3.15-40-3.15s-35.9,2.26-40,3.15a200.18,200.18,0,0,0-1.72,20.11Z"/><path class="cls-1" d="M722.55,98.36a.93.93,0,0,1,1-1,1.92,1.92,0,0,1,1,.32l.44-1.62a3.36,3.36,0,0,0-1.77-.5,2.7,2.7,0,0,0-2.65,3,3.35,3.35,0,0,0,1.86,3c.57.41,1.19.7,1.19,1.48a1.08,1.08,0,0,1-1.15,1.1,2.29,2.29,0,0,1-1-.21l-.57,1.59a3.18,3.18,0,0,0,1.72.51,2.85,2.85,0,0,0,2.92-3.16c0-2.75-3.05-2.84-3.05-4.51"/><path class="cls-1" d="M726.63,105.87h2.89l.35-8.77h0v.23l1.73,8.54h1.55l1.58-8.77h0l.58,8.77h2.78a2.85,2.85,0,0,1-.43-1.25c-.09-.72-1-10.36-1.14-11.57q-1.65.09-3.27.21l-.94,7.62h0l-1.14-7.47-3.22.27c-.14,1.72-.88,10.37-.94,11a2.76,2.76,0,0,1-.41,1.19"/><path class="cls-1" d="M765.23,99.43c0,3.32,2,6.57,5.51,6.57a3.07,3.07,0,0,0,1.71-.37l-.57-2.22a2.86,2.86,0,0,1-.94.19c-2.15,0-3.09-2.31-3.09-4.19s.94-3.94,3.1-3.94a3.66,3.66,0,0,1,.93.13l.62-2.08a4.79,4.79,0,0,0-1.37-.41l-.56,0c-3.32,0-5.34,3.23-5.34,6.35"/><polygon class="cls-1" points="786.99 97.6 787.6 95.72 782.78 95.72 782.78 105.87 784.79 105.87 784.79 101.65 786.48 101.65 786.48 99.77 784.79 99.77 784.79 97.6 786.99 97.6"/><path class="cls-1" d="M792,104.19c-1.71.06-2.65-1.66-2.71-3.35s.92-3.33,2.48-3.33a2.89,2.89,0,0,1,.75.06L793,96a2.92,2.92,0,0,0-1.36-.26c-2.67.09-4.22,2.67-4.14,5.13s1.72,5.11,4.55,5a2.08,2.08,0,0,0,1.34-.37l-.53-1.53a2,2,0,0,1-.8.16"/><path class="cls-1" d="M747.84,105.87h2.71V99.38l-.11-1.31,0,0,3,7.84h2.27V94a2.8,2.8,0,0,1,.37-1.36l-2.72,0h-.05v6.14a9.08,9.08,0,0,0,.19,2l0,0-2.88-8.12-2.43,0v12a2,2,0,0,1-.31,1.21"/><path class="cls-1" d="M742.74,103.61c-1.6,0-1.71-3.27-1.71-4.3s.11-4.3,1.71-4.3,1.71,3.15,1.71,4.3-.11,4.3-1.71,4.3m0-11c-2.15,0-4.28,1.82-4.28,6.67s2.13,6.67,4.28,6.67,4.28-1.82,4.28-6.67-2.13-6.67-4.28-6.67"/><path class="cls-1" d="M760.69,97.86l.26-1.64h0l.27,1.64.62,3.47h-1.7Zm-1.34,8,.44-2.52h2.43l.46,2.52h2.72a3.3,3.3,0,0,1-.57-1.2c-.16-.67-2.3-10.45-2.63-12l-2.57-.06-2.82,13.22Z"/><path class="cls-1" d="M776.91,103.84c-1.61,0-1.72-3.06-1.72-4s.11-4,1.72-4,1.72,3,1.72,4-.11,4-1.72,4m0-10.28c-2.17,0-4.32,1.7-4.32,6.25s2.15,6.25,4.32,6.25,4.31-1.7,4.31-6.25-2.14-6.25-4.31-6.25"/><path class="cls-1" d="M716,102.33l.43-2.67.21-1.2h0l.22,1.2.5,2.67Zm1.76-6.44H715.7l-2.32,10h2l.36-2h2l.37,2h2.29a1.81,1.81,0,0,1-.39-.8c-.11-.52-2.2-9.17-2.2-9.17"/><path class="cls-3" d="M789.36,141.31V114.43H773.42V168.6a113.75,113.75,0,0,0,8-10,57.12,57.12,0,0,0,7.91-17.3"/><path class="cls-3" d="M717.38,114.43v26.88a56.88,56.88,0,0,0,7.91,17.3,113.75,113.75,0,0,0,8,10V114.43Z"/><path class="cls-3" d="M744.15,114.43v65.5c3.67,3.6,7,6.62,9.22,8.54,2.24-1.92,5.55-4.94,9.22-8.54v-65.5Z"/><path class="cls-1" d="M848.68,71.51c8.86,0,15.58,6.55,15.58,15.26S857.54,102,848.68,102s-15.59-6.55-15.59-15.25S839.81,71.51,848.68,71.51Zm0,6.11a9.15,9.15,0,1,0,8.94,9.15A8.79,8.79,0,0,0,848.68,77.62Z"/><path class="cls-1" d="M874.27,89.82v11.39h-6.55V73.67l7,10h11.84v6.18ZM887,78.51H874.35L870,72.33h17Z"/><path class="cls-1" d="M898,89.82v11.39h-6.55V73.67l7,10h11.84v6.18Zm12.74-11.31H898.11l-4.32-6.18h17Z"/><path class="cls-1" d="M921.82,101.21h-6.55V72.33h6.55Z"/><path class="cls-1" d="M925.32,86.77c0-8.71,6.71-15.26,15.58-15.26,7.85,0,14.16,5.17,15.38,12.61h-6.71a9,9,0,1,0-8.67,11.8,8.53,8.53,0,0,0,8.67-7h6.71C955.34,96.57,949,102,940.9,102,932,102,925.32,95.43,925.32,86.77Z"/><path class="cls-1" d="M966.33,101.21h-6.55V72.33h6.55Z"/><path class="cls-1" d="M973.08,93.36,977,99l-1.06,2.2h-6.79Zm25.23,7.85h-6.84l-1.67-3.46H979.43l-5-7.12,9.31-18.91ZM987,92.06l-3.3-6.88-3.33,6.88Z"/><path class="cls-1" d="M1001.2,101.21V72.33h6.55V95h9.31l4.35,6.22Z"/><path class="cls-1" d="M1044.16,101.21h-12.74V73.67l7.12,10.17h4.4c2.4,0,3.78-1,3.78-2.81s-1.3-2.76-3.78-2.76h-5l-4.15-5.94h9.2c6.38,0,10.37,3.29,10.37,8.5a6.61,6.61,0,0,1-2.52,5.37,7,7,0,0,1,3.74,6.35C1054.53,97.87,1050.54,101.21,1044.16,101.21Zm0-5.9c2.32,0,3.78-1.14,3.78-3s-1.46-3-3.78-3H1038v5.94Z"/><path class="cls-1" d="M1076.91,101.21h-19.29V73.67l6.72,9.56h12.12v6.1h-12.41v5.78h12.86Zm0-22.78h-12.7l-4.27-6.1h17Z"/><path class="cls-1" d="M1089.23,78.55h-8.66V72.33h9.27l5.94,8.46v20.42h-6.55Zm3.87-6.22h11.35v6.22h-7Z"/><path class="cls-1" d="M1116.21,78.55h-8.67V72.33h9.28l5.94,8.46v20.42h-6.55Zm3.86-6.22h11.35v6.22h-7Z"/><path class="cls-1" d="M1141.84,101.21h-6.55V72.33h6.55Z"/><path class="cls-1" d="M1170.64,101.82,1152.9,86v15.17h-6.34V71.72l17.73,15.78V72.33h6.35Z"/><path class="cls-1" d="M1174.14,86.77a15.06,15.06,0,0,1,15.38-15.26,14.55,14.55,0,0,1,14.28,10.17h-6.92a8.36,8.36,0,0,0-7.36-4.06c-5,0-8.75,3.94-8.75,9.15a8.82,8.82,0,0,0,9,9.15,9.35,9.35,0,0,0,5.9-2L1199.2,99a15.56,15.56,0,0,1-9.48,3C1180.85,102,1174.14,95.43,1174.14,86.77ZM1204,101.21l-6.59-9.44h-7.08V86.28H1204Z"/><path class="cls-1" d="M855.43,142.3V150h-6.55V122.49l6.55,9.36v4.23h2.64c3.58,0,5.62-1.59,5.62-4.36s-2-4.35-5.62-4.35h-2.52l-4.35-6.22h6.43c7.77,0,12.73,4.15,12.73,10.57s-5,10.58-12.73,10.58Z"/><path class="cls-1" d="M870.85,142.18l3.94,5.65-1,2.2h-6.8ZM896.07,150h-6.83l-1.67-3.46H877.19l-5-7.12,9.32-18.91Zm-11.27-9.15L881.51,134l-3.34,6.88Z"/><path class="cls-1" d="M899,122.49l6.55,9.36V150H899Zm19,16.72L925.57,150h-7.33l-9.68-13.83.65,0c3.95-.25,6-1.75,6-4.44s-2.19-4.35-6-4.35h-3.54l-4.35-6.22h7.44c8,0,13.14,4.15,13.14,10.57A8.48,8.48,0,0,1,918,139.21Z"/><path class="cls-1" d="M933.22,127.37h-8.67v-6.22h9.28l5.93,8.46V150h-6.54Zm3.86-6.22h11.35v6.22h-7Z"/><path class="cls-1" d="M976.38,150.64l-17.74-15.78V150H952.3V120.54L970,136.32V121.15h6.35Z"/><path class="cls-1" d="M1000.34,150H981.06V122.49l6.71,9.56h12.12v6.1h-12.4v5.78h12.85Zm0-22.78H987.65l-4.27-6.1h17Z"/><path class="cls-1" d="M1004.82,122.49l6.55,9.36V150h-6.55Zm19,16.72,7.56,10.82h-7.32l-9.68-13.83.65,0c3.95-.25,6-1.75,6-4.44s-2.2-4.35-6-4.35h-3.54l-4.35-6.22h7.44c8,0,13.14,4.15,13.14,10.57A8.48,8.48,0,0,1,1023.86,139.21Z"/><path class="cls-1" d="M1043.18,142.18l4,5.65-1.06,2.2h-6.79Zm25.23,7.85h-6.84l-1.67-3.46h-10.37l-5-7.12,9.31-18.91Zm-11.27-9.15-3.3-6.88-3.33,6.88Z"/><path class="cls-1" d="M1077.85,138.64V150h-6.55V122.49l7,10h11.84v6.18Zm12.73-11.31h-12.65l-4.32-6.18h17Z"/><path class="cls-1" d="M1095.05,122.49l6.55,9.36V150h-6.55Zm19,16.72,7.57,10.82h-7.32l-9.68-13.83.65,0c3.94-.25,6-1.75,6-4.44s-2.2-4.35-6-4.35h-3.54l-4.36-6.22h7.45c8,0,13.14,4.15,13.14,10.57A8.47,8.47,0,0,1,1114.09,139.21Z"/><path class="cls-1" d="M1130.65,150h-6.55V121.15h6.55Z"/><path class="cls-1" d="M1134.15,135.59c0-8.71,6.71-15.26,15.58-15.26,7.85,0,14.16,5.17,15.38,12.61h-6.71a9,9,0,1,0-8.67,11.8,8.53,8.53,0,0,0,8.67-7h6.71c-.94,7.65-7.28,13.1-15.38,13.1C1140.86,150.84,1134.15,144.25,1134.15,135.59Z"/><path class="cls-1" d="M1167.8,142.18l3.94,5.65-1.06,2.2h-6.79ZM1193,150h-6.84l-1.66-3.46h-10.38l-5-7.12,9.31-18.91Zm-11.27-9.15-3.3-6.88-3.33,6.88Z"/></g></svg>