<?xml version="1.0" encoding="utf-8"?>
<!-- Generator: Adobe Illustrator 21.1.0, SVG Export Plug-In . SVG Version: 6.00 Build 0)  -->
<svg version="1.1" xmlns="http://www.w3.org/2000/svg" xmlns:xlink="http://www.w3.org/1999/xlink" x="0px" y="0px"
	 viewBox="0 0 174.7 32.8" style="enable-background:new 0 0 174.7 32.8;" xml:space="preserve">
<style type="text/css">
	.st0{display:none;}
	.st1{display:inline;fill:none;}
	.st2{fill:#FFFFFF;}
	.st3{display:inline;}
	.st4{fill:#009A3F;}
	.st5{fill:#009944;}
</style>
<g id="Bounding_Box" class="st0">
	<rect x="-96" y="-41.3" class="st1" width="366.6" height="115.4"/>
</g>
<g id="White">
	<g>
		<g>
			<path class="st2" d="M24.7,2.3C22.2,0.8,19.3,0,16.3,0c-2.8,0-5.6,0.7-8,2.1C3.2,4.9,0,10.3-0.1,16.2c-0.1,5.8,3,11.3,8,14.3
				c2.5,1.5,5.5,2.3,8.4,2.3c2.8,0,5.6-0.7,8-2.1c5.1-2.8,8.3-8.2,8.4-14.1C32.8,10.8,29.7,5.3,24.7,2.3z M9,29.5
				c-0.4,0.1-1.2-0.5-0.7-0.9c0.1-0.1,0.1-0.1,0.2-0.1c0.2-0.1,20.7-7.3,21.3-7.5c0.2-0.1,0.5-0.2,0.7,0.1c0.2,0.3,0,0.6-0.1,0.9
				c-0.1,0.3-0.3,0.7-0.4,1c-0.2,0.3-0.3,0.7-0.5,1c-0.1,0.1-0.1,0.3-0.3,0.4c-0.1,0.1-0.3,0.1-0.5,0.2C25.7,25.2,9.3,29.4,9,29.5z
				 M31.4,16.5c-0.1,0.4-0.5,0.5-0.8,0.7C30.1,17.4,7,27.9,6.8,27.9c-0.2,0-0.3-0.1-0.5-0.2c-0.2-0.2-0.4-0.3-0.6-0.5
				c-0.3-0.2-0.3-0.6,0-0.8c0.1,0,0.1-0.1,0.2-0.1c0.7-0.5,1.5-1,2.2-1.5c1.3-0.9,2.7-1.8,4-2.6c1.6-1.1,3.3-2.2,4.9-3.3
				c1.7-1.1,3.3-2.2,5-3.3c1.4-0.9,2.9-1.9,4.3-2.8c0.9-0.6,1.8-1.2,2.7-1.8c0.2-0.1,0.3-0.2,0.5-0.3c0.3-0.2,0.6,0,0.7,0.3
				c0.3,0.9,0.6,1.8,0.8,2.7c0.1,0.5,0.2,0.9,0.2,1.4C31.4,15.5,31.5,16.1,31.4,16.5z M2.1,21.1l9.7-19C11.8,2,11.9,2,12.1,1.9
				c1.4-0.4,2.8-0.6,4.2-0.6C19,1.3,21.7,2,24,3.5c0.6,0.3,1.1,0.7,1.6,1.1c0.2,0.2,0.2,0.5,0,0.7L4.4,24.9
				c-0.2,0.2-0.5,0.1-0.7-0.1c-0.7-1.1-1.3-2.2-1.7-3.4C2,21.4,2,21.2,2.1,21.1z"/>
			<g>
				<path class="st2" d="M65.5,21.9c-0.2-0.1-0.7-0.5-1-0.7c-0.1-0.1-0.1-0.1-0.1-0.1c0-0.1,0.1-0.2,0.1-0.2l1.1-1
					c2.2-1.7,2.5-5.4,2.5-5.6c0-2.9-2.8-3.8-4.3-3.8l-4.3,0c-1.1,0-1.6,0.8-1.7,1.2l-3.4,13.5c0,0.1-0.2,0.5,0.1,0.9
					c0.1,0.2,0.4,0.4,0.9,0.4c0,0,0,0,0,0l2.4,0c0.3,0,0.9-0.3,1-1.1c0,0,0-1.2,0.6-2.1c0.1-0.2,0.3-0.2,0.3-0.2
					c0.4,0,1,0.6,1.4,1.3c0.7,1.2,1.7,2,2.7,2.2c0.1,0,0.2,0,0.2,0c1,0,1.5-1,1.6-2l0.4-1.4C66.2,22.6,66,22.2,65.5,21.9z
					 M63.2,16.8L63.2,16.8c-0.1,0.2-0.4,0.7-0.4,0.7c-0.6,0.7-1.3,0.8-1.7,0.9c-0.5,0-0.3-0.5-0.3-0.5l0.5-2.2c0,0,0.2-0.7,0.9-0.7
					l0.7,0.1c0,0,0.7,0,0.6,0.9C63.4,16,63.4,16.4,63.2,16.8z M78.7,16.8c0.1,0.2,0.2,0.5,0.1,0.9l-0.5,1.7
					c-0.1,0.4-0.6,1.2-1.7,1.2l-3.2-0.1c-0.1,0-0.5,0-0.7,0.7l-0.2,0.9c0,0-0.1,0.2,0,0.3c0,0,0.2,0.2,0.7,0.2l3.3,0
					c0.1,0,0.4,0,0.7,0.2c0.1,0.1,0.7,0.4,0.4,1.6l-0.3,1.4c0,0.3-0.4,1-1.6,0.9l-7.1,0c-0.5,0-0.8-0.2-1-0.4
					c-0.4-0.5-0.3-1.1-0.2-1.2l3.2-13.2c0.1-0.4,0.6-1.3,2.2-1.3c0.4,0,1.1,0,2,0c2,0,4.5,0,4.5,0c0.2,0,0.5,0,0.8,0.3
					c0.2,0.3,0.2,0.6,0.1,1l-0.3,1.6c0,0.1-0.5,1.4-2.1,1.2l-3,0c0,0-0.5,0-0.6,0.4L74,16.2c0,0,0,0.1,0,0.1c0,0,0.1,0.1,0.4,0.1
					l3.5,0C78,16.4,78.5,16.4,78.7,16.8z M54.6,8.2c-1.8-2.3-4.3-2.3-4.6-2.3c0,0,0,0,0,0l-5.8,0c-2.9,0-3.3,1.8-3.3,2.2L36.7,25
					c0,0.1-0.1,0.9,0.3,1.3c0.2,0.2,0.4,0.3,0.7,0.3l2.7,0c0.6,0,1.6-0.4,1.8-1.8l0.4-2.1c0.1-1,0.7-1.4,1.8-1.4c0.2,0,0.4,0,0.4,0
					l0.6,0.1c0,0,0.1,0,0.2,0c0.8,0,3.5-0.1,5.5-1.4c2.4-1.5,3.7-4.5,3.8-4.7C54.9,14.9,56.5,10.6,54.6,8.2z M37.6,26.1L37.6,26.1
					L37.6,26.1L37.6,26.1z M50,12.4c0.1,1.8-1,2.6-1.4,3c-0.4,0.3-1.5,0.6-2.7,0.4c-1.2-0.2-0.9-1.5-0.9-1.5l0.4-2
					c0.4-1.7,1.9-1.5,1.9-1.5l1.2,0.1C50,11.2,50,12.4,50,12.4z M113.8,17.8l-0.5,1.7c-0.1,0.4-0.6,1.2-1.7,1.2l-3.2-0.1
					c-0.1,0-0.5,0-0.7,0.7l-0.2,0.9c0,0-0.1,0.2,0,0.3c0,0,0.2,0.2,0.7,0.2l3.3,0c0.1,0,0.4,0,0.7,0.2c0.1,0.1,0.7,0.4,0.4,1.6
					l-0.3,1.4c0,0.3-0.4,1-1.6,0.9l-7.1,0c-0.5,0-0.8-0.2-1-0.4c-0.4-0.5-0.3-1.1-0.2-1.2l3.2-13.2c0.1-0.4,0.6-1.4,2.2-1.3
					c0.4,0,1.1,0,2,0c2,0,4.5,0,4.5,0c0,0,0,0,0,0c0.2,0,0.5,0,0.8,0.3c0.2,0.3,0.2,0.6,0.1,1l-0.3,1.6c0,0.1-0.5,1.4-2.1,1.2l-3,0
					c0,0-0.5,0-0.6,0.4l-0.2,1.1c0,0,0,0.1,0,0.1c0,0,0.1,0.1,0.4,0.1l3.5,0c0.1,0,0.5,0,0.8,0.4C113.8,17.1,113.9,17.4,113.8,17.8z
					 M96.7,11.2c-0.3-0.4-0.8-0.4-0.9-0.4h0l-1.3,0c-1.2-0.1-1.6,0.5-1.7,0.6l-4,5c-0.1,0.1-0.2,0.2-0.3,0.3c0,0,0,0,0,0l-2.1-5
					c-0.3-0.9-1-0.9-1.2-0.9c0,0-0.1,0-0.1,0l-1.4,0c-1.3,0-1.5,1-1.5,1L79,25.4c0,0.1-0.2,0.5,0.1,0.9c0.1,0.2,0.4,0.4,0.9,0.4h0
					l1.7,0c1,0,1.4-0.6,1.5-1.1l0.7-2.8l0.8-3.1c0.1-0.3,0.2-0.4,0.2-0.4c0,0,0.1,0.1,0.1,0.1c0,0,0.9,1.7,1.3,2.5
					c0.3,0.6,0.8,0.7,1,0.7c0.4,0,0.7-0.2,0.8-0.3l0.6-0.6c1.1-1.2,1.7-1.6,1.9-1.7c0,0,0,0.1,0,0.1c-0.1,0.2-1.2,4.7-1.3,5.3
					c-0.1,0.4,0,0.7,0.2,0.8c0.2,0.3,0.5,0.3,0.6,0.3l2,0c1.3,0,1.6-1,1.6-1.1l3.3-13.4C97,11.8,96.9,11.4,96.7,11.2z M91.9,26.3
					L91.9,26.3L91.9,26.3L91.9,26.3z M125,22.2c-0.2-0.1-0.7-0.5-1-0.7c-0.1-0.1-0.1-0.1-0.1-0.1c0-0.1,0.1-0.2,0.1-0.2l1.1-1
					c2.2-1.7,2.5-5.4,2.5-5.6c0-2.9-2.8-3.8-4.3-3.8l-4.3,0c-1.1,0-1.6,0.8-1.7,1.2l-3.4,13.5c0,0.1-0.2,0.5,0.1,0.9
					c0.1,0.2,0.4,0.4,0.9,0.4c0,0,0,0,0,0l2.4,0c0.3,0,0.9-0.3,1-1.1c0,0,0-1.2,0.6-2.1c0.1-0.2,0.3-0.2,0.3-0.2
					c0.4,0,1,0.6,1.4,1.3c0.7,1.2,1.7,2,2.7,2.2c0.1,0,0.2,0,0.2,0c1,0,1.5-1,1.6-2l0.4-1.4C125.7,22.9,125.5,22.4,125,22.2z
					 M122.7,17L122.7,17c-0.1,0.2-0.4,0.7-0.4,0.7c-0.6,0.7-1.3,0.8-1.7,0.9c-0.5,0-0.3-0.5-0.3-0.5l0.5-2.2c0,0,0.2-0.7,0.9-0.7
					l0.7,0.1c0,0,0.7,0,0.6,0.9C123,16.2,122.9,16.6,122.7,17z M103.4,12.1l-3.2,13.2c-0.2,1.3-1.1,1.4-1.2,1.4l0,0l-2.3,0
					c-0.5,0-0.8-0.2-0.9-0.4c-0.3-0.4-0.1-0.9-0.1-1L99,11.8c0.1-0.4,0.5-1.1,1.5-1.1l1.9,0c0.2,0,0.5,0,0.7,0.3
					C103.4,11.3,103.4,11.6,103.4,12.1L103.4,12.1z"/>
			</g>
		</g>
		<g>
			<path class="st2" d="M158.1,12.1c0.6,0,0.9,0.1,0.9,0.1s4.1,0.5,3,6l-0.2,0.8c0,0-0.2,1.1-1.6,1.1c0,0-0.1,0-0.1,0l-5.8,0
				c0,0,0,0,0,0c-0.1,0-0.7,0-0.6,0.7c0.2,0.7,1.3,1.1,1.4,1.1c0,0,0.6,0.1,1.4,0.1c1,0,2.4-0.1,3.5-0.7c0,0,0.2-0.1,0.5-0.1
				c0.3,0,0.6,0.1,0.5,0.6c-0.3,0.9-0.5,2.1-0.5,2.1s-0.1,0.4-1,0.9c0,0-1.5,0.8-4,0.8c-0.2,0-0.4,0-0.7,0c-2.8-0.2-4.5-1.4-4.8-3.6
				c0,0-0.3-2.5,0.9-5.1l0.1-0.2C153.1,12.6,156.5,12.1,158.1,12.1 M156.9,17c0.6,0,0.8-0.1,0.8-0.1c0.1,0,0.6-0.3,0.1-0.7
				c-0.3-0.3-0.7-0.3-0.9-0.3c-0.1,0-0.1,0-0.1,0l-0.1,0c-0.6,0-1.1,0.5-1.1,0.5c-0.3,0.4,0,0.5,0.2,0.5l0.5,0.1
				C156.6,17,156.7,17,156.9,17 M158.1,10.8c-1.7,0-5.8,0.5-8.3,5.4c0,0,0,0,0,0.1l-0.1,0.1c-1.4,2.9-1,5.7-1,5.8c0,0,0,0,0,0
				c0.4,2.8,2.6,4.5,6.1,4.7c0.2,0,0.5,0,0.7,0c2.7,0,4.5-0.9,4.6-0.9c0,0,0,0,0,0c1.3-0.7,1.6-1.4,1.7-1.8c0-0.1,0.3-1.2,0.5-2
				c0.2-0.6,0-1.1-0.1-1.4c0.6-0.5,0.8-1.1,0.9-1.5l0.2-0.8c0,0,0,0,0,0c0.4-2.3,0.2-4.2-0.9-5.6c-1.2-1.6-2.9-1.9-3.2-2
				C159.1,10.8,158.7,10.8,158.1,10.8L158.1,10.8z"/>
			<path class="st2" d="M171.5,9.2l0.2,0c0.6,0.1,0.3,1.1,0.3,1.1l-0.4,1.7c0,0.2,0.1,0.3,0.3,0.3c0,0,0.1,0,0.1,0
				c0.2,0,0.6-0.1,0.6-0.1c0.8,0.1,0.6,0.6,0.6,0.6l-0.6,2.3c-0.1,0.4-0.5,0.6-1.1,0.7c-0.5,0.1-0.5,0.1-0.7,0.2
				c-0.2,0.1-0.5,1-0.5,1l-0.9,3.7c-0.1,0.5,0.4,0.6,0.6,0.6c0.1,0,0.1,0,0.1,0c0,0,0.1,0,0.1,0c0.3,0,0.3,0.2,0.3,0.4
				c0,0.2-0.5,2.2-0.5,2.2c-0.3,1.3-1.5,1.3-1.6,1.3c0,0,0,0,0,0l-1.9-0.1c-1.8-0.1-1-3.4-1-3.4l1.3-5c0.3-0.8-0.2-0.9-0.2-0.9
				c-0.4-0.1-0.3-0.5-0.3-0.5l0.6-2.3c0.1-0.7,0.7-0.7,0.8-0.7c0,0,0,0,0,0c0,0,0,0,0,0c0.3,0,0.3-0.4,0.3-0.4l0.4-1.7
				c0.2-0.9,0.9-1,0.9-1L171.5,9.2 M171.5,7.9C171.5,7.9,171.5,7.9,171.5,7.9L169.2,8c0,0-0.1,0-0.1,0c-0.6,0.1-1.7,0.6-2,2
				l-0.3,1.2c-0.6,0.2-1.1,0.8-1.3,1.6l-0.6,2.3c-0.1,0.6,0,1.3,0.5,1.7l-1.2,4.8c-0.1,0.4-0.6,2.7,0.4,4c0.4,0.6,1.1,0.9,1.8,1
				c0,0,0,0,0,0l1.9,0.1c0,0,0,0,0.1,0c1.2,0,2.6-0.7,2.9-2.3c0.3-1.4,0.5-2.2,0.5-2.3c0.1-0.7-0.1-1.1-0.4-1.3
				c-0.1-0.1-0.3-0.3-0.6-0.4l0.6-2.8c0-0.1,0-0.1,0.1-0.2c1.6-0.2,2.1-1.2,2.2-1.7l0.6-2.3c0.1-0.3,0.2-0.8-0.2-1.4
				c-0.2-0.3-0.5-0.6-1-0.8l0.1-0.4c0.1-0.3,0.3-1.2-0.1-1.9C173,8.4,172.6,8.1,172,8c0,0-0.1,0-0.1,0l-0.2,0
				C171.6,7.9,171.6,7.9,171.5,7.9L171.5,7.9z"/>
			<path class="st2" d="M137.6,7.2c0.1,0,0.2,0,0.2,0l5.3,0c0,0,0,0,0,0c0.2,0,4.2,0,4.5,3.1c0.3,3.1-1.8,4.9-1.8,4.9
				s-0.6,0.4-1,0.6c0,0-0.3,0.1,0,0.4c0,0,2,1.1,1,4.4c0,0-1.1,4.4-5.2,4.7c0,0-0.5,0-1.5,0.1l-6,0l-0.7,0c-0.6,0-0.4-1.3-0.4-1.3
				l3.9-15.8C136.1,8.1,136.2,7.2,137.6,7.2 M141.4,13.4c0,0,1.4-0.1,1.5-1.1c0.1-1-0.9-1-0.9-1h0l-0.6,0c0,0-0.1,0-0.2,0
				c-0.4,0-1.1,0.1-1.3,0.9c0,0-0.5,1.2,0.3,1.3L141.4,13.4 M138.7,21c0.9,0,2-0.1,2.5-0.7c0.6-0.7,0.4-1.7-0.1-1.9
				c-0.3-0.1-0.8-0.2-1.4-0.2c-0.3,0-0.7,0-1,0.1c0,0-0.5,0.1-0.7,0.6l0,0l-0.3,1.1c0,0-0.3,0.9,0.7,0.9C138.5,21,138.6,21,138.7,21
				 M137.6,5.9L137.6,5.9c-1.9,0-2.7,1.2-2.8,2l-3.9,15.8c0,0,0,0.1,0,0.1c-0.1,0.4-0.2,1.5,0.4,2.2c0.3,0.4,0.8,0.6,1.3,0.6
				c0,0,0,0,0.1,0c0,0,0,0,0,0l0.7,0l6,0c0,0,0,0,0,0c0,0,0,0,0,0c0.9,0,1.5-0.1,1.6-0.1c4.8-0.4,6.2-5.1,6.3-5.6
				c0.7-2.3,0.2-3.8-0.4-4.7c0.4-0.3,2.6-2.5,2.3-6c-0.2-1.8-1.3-3.1-3.2-3.8c-1.2-0.5-2.4-0.5-2.7-0.5c0,0,0,0,0,0l-5.3,0
				C137.8,5.9,137.7,5.9,137.6,5.9L137.6,5.9L137.6,5.9z"/>
		</g>
	</g>
</g>
<g id="Black" class="st0">
	<g class="st3">
		<g>
			<path class="st2" d="M168.9,33.8l-1.3,0c-0.7,0-1.3-0.3-1.7-0.9c-0.9-1.1-0.7-2.7-0.6-3.4c0,0,0-0.1,0-0.1l6.9-28
				c0.2-1.1,1.4-2.9,4.3-2.9c0.2,0,0.3,0,0.5,0l9.4,0c0.4,0,2.4,0,4.5,0.8c3,1.1,4.9,3.3,5.2,6.1c0.6,5.9-3,9.4-3.8,10.1l-0.5,0.4
				l0.3,0.5c0.9,1.4,1.8,3.9,0.7,7.8c-0.3,0.9-2.6,8.8-10.6,9.5c-0.3,0-1.3,0.1-2.7,0.1h0L168.9,33.8z"/>
		</g>
		<g>
			<g>
				<path d="M48.7,26.2C48.3,26,47.4,25.3,47,25c-0.1-0.1-0.1-0.2-0.1-0.2c0-0.1,0.1-0.4,0.2-0.4l1.9-1.8c4-3,4.4-9.7,4.4-10
					c-0.1-5.2-5-6.6-7.6-6.7l-7.7,0c-2,0-2.9,1.4-3,2.2L29,32c0,0.1-0.3,1,0.2,1.6c0.2,0.3,0.7,0.7,1.6,0.7c0,0,0,0,0,0l4.3,0.1
					c0.5-0.1,1.6-0.5,1.7-2c0,0,0-2.1,1-3.7c0.2-0.4,0.5-0.4,0.5-0.4c0.7,0,1.9,1.1,2.6,2.3c1.2,2.2,3,3.6,4.8,3.9
					c0.1,0,0.3,0,0.4,0c1.7,0,2.7-1.8,2.9-3.5l0.6-2.5C50,27.4,49.7,26.6,48.7,26.2z M44.7,17L44.7,17c-0.1,0.3-0.8,1.2-0.8,1.2
					c-1,1.3-2.3,1.5-3.1,1.5c-0.9,0.1-0.6-0.9-0.6-0.9l0.9-3.8c0,0,0.3-1.3,1.6-1.2l1.2,0.2c0,0,1.2,0,1.1,1.7
					C45.1,15.7,45,16.3,44.7,17z M72.2,17c0.2,0.3,0.4,0.8,0.2,1.7l-0.9,3.1c-0.2,0.7-1.1,2.1-3.1,2.1l-5.6-0.1
					c-0.1,0-1,0.1-1.2,1.2l-0.3,1.6c0,0.1-0.1,0.3,0,0.5c0.1,0.1,0.3,0.3,1.2,0.3l5.9-0.1c0.2,0,0.8,0,1.2,0.3
					c0.2,0.1,1.2,0.7,0.7,2.9l-0.5,2.6c0,0.5-0.6,1.8-2.9,1.7l-12.6,0c-0.9,0-1.4-0.4-1.7-0.7c-0.7-0.8-0.4-1.9-0.4-2.1L58,8.4
					c0.1-0.8,1-2.4,3.8-2.3c0.7,0,1.9,0,3.5,0c3.5,0,7.9-0.1,7.9-0.1c0.3,0,0.9,0.1,1.4,0.6c0.4,0.4,0.4,1.1,0.3,1.8l-0.6,2.7
					c-0.1,0.2-0.8,2.4-3.7,2.1l-5.2-0.1c0,0-0.9,0.1-1,0.8L63.9,16c0,0,0,0.1,0,0.1c0,0,0.2,0.1,0.6,0.1l6.3,0
					C70.9,16.3,71.7,16.4,72.2,17z M29.4,1.8c-3.2-4-7.7-4.1-8.2-4.1c0,0,0,0,0,0L10.8-2.2C5.8-2.2,5,1,5,1.7l-7.3,29.9
					c0,0.2-0.2,1.5,0.4,2.3c0.3,0.4,0.7,0.5,1.2,0.5l4.8-0.1c1,0,2.8-0.7,3.3-3.2L8,27.4c0.2-1.7,1.2-2.6,3.2-2.6
					c0.4,0,0.7,0,0.8,0.1L13,25c0,0,0.1,0,0.3,0c1.4,0,6.1-0.2,9.8-2.5c4.2-2.7,6.6-8.1,6.8-8.3C30,13.8,32.8,6.1,29.4,1.8z
					 M-0.7,33.6L-0.7,33.6L-0.7,33.6L-0.7,33.6z M21.2,9.4c0.3,3.2-1.8,4.7-2.5,5.3c-0.7,0.6-2.7,1-4.8,0.7s-1.5-2.6-1.5-2.6
					l0.8-3.5c0.7-3.1,3.3-2.6,3.3-2.6l2.1,0.2C21.3,7.1,21.2,9.4,21.2,9.4z M134.3,18.9l-0.9,3.1c-0.2,0.7-1.1,2.1-3.1,2.1l-5.6-0.1
					c-0.1,0-1,0.1-1.2,1.2l-0.3,1.6c0,0.1-0.1,0.3,0,0.5c0.1,0.1,0.3,0.3,1.2,0.3l5.9-0.1c0.2,0,0.8,0,1.2,0.3
					c0.2,0.1,1.2,0.7,0.7,2.9l-0.5,2.6c0,0.5-0.6,1.8-2.9,1.7l-12.6,0c-0.9,0-1.4-0.4-1.7-0.7c-0.7-0.8-0.4-1.9-0.4-2.1l5.7-23.4
					c0.1-0.8,1-2.4,3.8-2.3c0.7,0,1.9,0,3.5,0c3.5,0,7.9-0.1,7.9-0.1c0,0,0,0,0,0c0.3,0,0.9,0.1,1.4,0.6c0.4,0.4,0.4,1.1,0.3,1.8
					l-0.6,2.8c-0.1,0.2-0.8,2.4-3.7,2.1l-5.3-0.1c0,0-0.9,0.1-1,0.8l-0.4,1.9c0,0,0,0.1,0,0.1c0,0,0.2,0.1,0.6,0.1l6.3,0
					c0.1,0,0.9,0,1.4,0.7C134.4,17.6,134.6,18.1,134.3,18.9z M104.1,7.1c-0.5-0.7-1.4-0.7-1.6-0.7h0l-2.2,0c-2.1-0.1-2.9,0.9-2.9,1
					l-7.2,8.9c-0.2,0.2-0.4,0.4-0.5,0.5c0,0,0,0,0-0.1l-3.7-8.9c-0.5-1.5-1.8-1.6-2.1-1.6c-0.1,0-0.2,0-0.2,0l-2.4,0.1
					c-2.3,0.1-2.6,1.8-2.7,1.8l-5.9,24.4c0,0.1-0.3,0.9,0.2,1.6c0.2,0.3,0.7,0.7,1.7,0.7h0l2.9,0c1.8,0.1,2.5-1.1,2.6-1.9l1.2-4.9
					l1.5-5.5c0.2-0.5,0.4-0.7,0.4-0.7c0.1,0,0.2,0.2,0.2,0.2c0,0,1.6,3,2.3,4.5c0.5,1.1,1.3,1.3,1.8,1.3c0.7,0,1.2-0.4,1.4-0.5l1-1
					c2-2.1,3-2.8,3.4-3c0,0.1,0,0.2-0.1,0.2c-0.1,0.3-2.2,8.4-2.4,9.4c-0.1,0.7,0.1,1.2,0.3,1.4c0.4,0.5,0.9,0.5,1,0.6l3.5,0
					c2.2,0,2.8-1.8,2.8-1.9l5.9-23.8C104.6,8.3,104.5,7.6,104.1,7.1z M95.6,34L95.6,34L95.6,34L95.6,34z M154.2,26.6
					c-0.4-0.2-1.3-0.8-1.7-1.2c-0.1-0.1-0.1-0.2-0.1-0.2c0-0.1,0.1-0.4,0.2-0.4l1.9-1.8c4-3,4.4-9.7,4.4-10c-0.1-5.2-5-6.6-7.6-6.7
					l-7.7,0c-2,0-2.8,1.4-3,2.2l-6.1,23.9c0,0.1-0.3,1,0.2,1.6c0.2,0.3,0.7,0.7,1.6,0.7c0,0,0,0,0,0l4.3,0.1c0.5-0.1,1.6-0.5,1.7-2
					c0,0,0-2.1,1-3.7c0.2-0.4,0.5-0.4,0.5-0.4c0.7,0,1.9,1.1,2.6,2.3c1.2,2.2,3,3.6,4.8,3.9c0.1,0,0.3,0,0.4,0
					c1.7,0,2.7-1.8,2.9-3.5l0.6-2.5C155.5,27.8,155.1,27.1,154.2,26.6z M150.2,17.4L150.2,17.4c-0.1,0.3-0.8,1.2-0.8,1.2
					c-1,1.3-2.3,1.5-3.1,1.5c-0.9,0.1-0.6-0.9-0.6-0.9l0.9-3.8c0,0,0.3-1.3,1.6-1.2l1.2,0.2c0,0,1.2,0,1.1,1.7
					C150.6,16.1,150.5,16.8,150.2,17.4z M115.9,8.8l-5.7,23.5c-0.3,2.2-2,2.5-2.1,2.5l0,0l-4.1,0c-0.9,0-1.3-0.4-1.5-0.8
					c-0.5-0.7-0.1-1.6-0.1-1.7l6-24c0.2-0.7,0.9-1.9,2.6-1.9l3.4,0c0.3,0,0.8,0.1,1.3,0.5c0.4,0.4,0.5,1,0.4,1.6L115.9,8.8z"/>
			</g>
		</g>
		<g>
			<path d="M176.6,0.1c0.1,0,0.3,0,0.4,0l9.5,0c0,0,0,0,0,0c0.3,0,7.4,0.1,8,5.5c0.6,5.5-3.2,8.7-3.2,8.7s-1.1,0.8-1.7,1.1
				c0,0-0.6,0.2,0,0.6c0,0,3.6,1.9,1.8,7.8c0,0-2,7.7-9.2,8.3c0,0-0.9,0.1-2.6,0.1l-10.7,0l-1.2,0c-1.2-0.1-0.8-2.4-0.8-2.4l7-28.1
				C173.9,1.8,174.1,0.1,176.6,0.1 M183.2,11.2c0,0,2.5-0.2,2.6-2c0.1-1.8-1.5-1.8-1.5-1.8h0l-1-0.1c0,0-0.1,0-0.4,0
				c-0.6,0-1.9,0.2-2.3,1.6c0,0-0.8,2.2,0.5,2.3L183.2,11.2 M178.5,24.7c1.7,0,3.5-0.1,4.4-1.2c1-1.2,0.6-3.1-0.2-3.4
				c-0.5-0.2-1.4-0.4-2.4-0.4c-0.6,0-1.2,0.1-1.8,0.3c0,0-0.8,0.2-1.2,1.1l0,0.1l-0.5,2c0,0-0.6,1.6,1.3,1.6
				C178.2,24.7,178.4,24.7,178.5,24.7 M176.6-2.2L176.6-2.2c-3.4,0-4.8,2.2-5,3.5l-6.9,28c0,0.1,0,0.1,0,0.2c-0.1,0.8-0.3,2.7,0.8,4
				c0.6,0.7,1.3,1.1,2.2,1.1c0,0,0.1,0,0.1,0c0,0,0,0,0,0l1.2,0l10.6,0c0,0,0,0,0,0c0,0,0,0,0.1,0c1.7,0,2.6-0.1,2.8-0.1
				c8.5-0.7,11-9.1,11.2-10c1.2-4.1,0.3-6.8-0.8-8.4c0.7-0.6,4.6-4.4,4-10.7c-0.3-3.1-2.3-5.5-5.6-6.7c-2.2-0.8-4.3-0.9-4.7-0.9
				c0,0,0,0,0,0l-9.4,0C177-2.2,176.8-2.2,176.6-2.2L176.6-2.2L176.6-2.2z"/>
		</g>
	</g>
</g>
<g id="CMYK" class="st0">
	<g class="st3">
		<g>
			<path class="st2" d="M168.9,33.8l-1.3,0c-0.7,0-1.3-0.3-1.7-0.9c-0.9-1.1-0.7-2.7-0.6-3.4c0,0,0-0.1,0-0.1l6.9-28
				c0.2-1.1,1.4-2.9,4.3-2.9c0.2,0,0.3,0,0.5,0l9.4,0c0.4,0,2.4,0,4.5,0.8c3,1.1,4.9,3.3,5.2,6.1c0.6,5.9-3,9.4-3.8,10.1l-0.5,0.4
				l0.3,0.5c0.9,1.4,1.8,3.9,0.7,7.8c-0.3,0.9-2.6,8.8-10.6,9.5c-0.3,0-1.3,0.1-2.7,0.1h0L168.9,33.8z"/>
		</g>
		<g>
			<g>
				<path class="st4" d="M48.7,26.2C48.3,26,47.4,25.3,47,25c-0.1-0.1-0.1-0.2-0.1-0.2c0-0.1,0.1-0.4,0.2-0.4l1.9-1.8
					c4-3,4.4-9.7,4.4-10c-0.1-5.2-5-6.6-7.6-6.7l-7.7,0c-2,0-2.9,1.4-3,2.2L29,32c0,0.1-0.3,1,0.2,1.6c0.2,0.3,0.7,0.7,1.6,0.7
					c0,0,0,0,0,0l4.3,0.1c0.5-0.1,1.6-0.5,1.7-2c0,0,0-2.1,1-3.7c0.2-0.4,0.5-0.4,0.5-0.4c0.7,0,1.9,1.1,2.6,2.3
					c1.2,2.2,3,3.6,4.8,3.9c0.1,0,0.3,0,0.4,0c1.7,0,2.7-1.8,2.9-3.5l0.6-2.5C50,27.4,49.7,26.6,48.7,26.2z M44.7,17L44.7,17
					c-0.1,0.3-0.8,1.2-0.8,1.2c-1,1.3-2.3,1.5-3.1,1.5c-0.9,0.1-0.6-0.9-0.6-0.9l0.9-3.8c0,0,0.3-1.3,1.6-1.2l1.2,0.2
					c0,0,1.2,0,1.1,1.7C45.1,15.7,45,16.3,44.7,17z M72.2,17c0.2,0.3,0.4,0.8,0.2,1.7l-0.9,3.1c-0.2,0.7-1.1,2.1-3.1,2.1l-5.6-0.1
					c-0.1,0-1,0.1-1.2,1.2l-0.3,1.6c0,0.1-0.1,0.3,0,0.5c0.1,0.1,0.3,0.3,1.2,0.3l5.9-0.1c0.2,0,0.8,0,1.2,0.3
					c0.2,0.1,1.2,0.7,0.7,2.9l-0.5,2.6c0,0.5-0.6,1.8-2.9,1.7l-12.6,0c-0.9,0-1.4-0.4-1.7-0.7c-0.7-0.8-0.4-1.9-0.4-2.1L58,8.4
					c0.1-0.8,1-2.4,3.8-2.3c0.7,0,1.9,0,3.5,0c3.5,0,7.9-0.1,7.9-0.1c0.3,0,0.9,0.1,1.4,0.6c0.4,0.4,0.4,1.1,0.3,1.8l-0.6,2.7
					c-0.1,0.2-0.8,2.4-3.7,2.1l-5.2-0.1c0,0-0.9,0.1-1,0.8L63.9,16c0,0,0,0.1,0,0.1c0,0,0.2,0.1,0.6,0.1l6.3,0
					C70.9,16.3,71.7,16.4,72.2,17z M29.4,1.8c-3.2-4-7.7-4.1-8.2-4.1c0,0,0,0,0,0L10.8-2.2C5.8-2.2,5,1,5,1.7l-7.3,29.9
					c0,0.2-0.2,1.5,0.4,2.3c0.3,0.4,0.7,0.5,1.2,0.5l4.8-0.1c1,0,2.8-0.7,3.3-3.2L8,27.4c0.2-1.7,1.2-2.6,3.2-2.6
					c0.4,0,0.7,0,0.8,0.1L13,25c0,0,0.1,0,0.3,0c1.4,0,6.1-0.2,9.8-2.5c4.2-2.7,6.6-8.1,6.8-8.3C30,13.8,32.8,6.1,29.4,1.8z
					 M-0.7,33.6L-0.7,33.6L-0.7,33.6L-0.7,33.6z M21.2,9.4c0.3,3.2-1.8,4.7-2.5,5.3c-0.7,0.6-2.7,1-4.8,0.7s-1.5-2.6-1.5-2.6
					l0.8-3.5c0.7-3.1,3.3-2.6,3.3-2.6l2.1,0.2C21.3,7.1,21.2,9.4,21.2,9.4z M134.3,18.9l-0.9,3.1c-0.2,0.7-1.1,2.1-3.1,2.1l-5.6-0.1
					c-0.1,0-1,0.1-1.2,1.2l-0.3,1.6c0,0.1-0.1,0.3,0,0.5c0.1,0.1,0.3,0.3,1.2,0.3l5.9-0.1c0.2,0,0.8,0,1.2,0.3
					c0.2,0.1,1.2,0.7,0.7,2.9l-0.5,2.6c0,0.5-0.6,1.8-2.9,1.7l-12.6,0c-0.9,0-1.4-0.4-1.7-0.7c-0.7-0.8-0.4-1.9-0.4-2.1l5.7-23.4
					c0.1-0.8,1-2.4,3.8-2.3c0.7,0,1.9,0,3.5,0c3.5,0,7.9-0.1,7.9-0.1c0,0,0,0,0,0c0.3,0,0.9,0.1,1.4,0.6c0.4,0.4,0.4,1.1,0.3,1.8
					l-0.6,2.8c-0.1,0.2-0.8,2.4-3.7,2.1l-5.3-0.1c0,0-0.9,0.1-1,0.8l-0.4,1.9c0,0,0,0.1,0,0.1c0,0,0.2,0.1,0.6,0.1l6.3,0
					c0.1,0,0.9,0,1.4,0.7C134.4,17.6,134.6,18.1,134.3,18.9z M104.1,7.1c-0.5-0.7-1.4-0.7-1.6-0.7h0l-2.2,0c-2.1-0.1-2.9,0.9-2.9,1
					l-7.2,8.9c-0.2,0.2-0.4,0.4-0.5,0.5c0,0,0,0,0-0.1l-3.7-8.9c-0.5-1.5-1.8-1.6-2.1-1.6c-0.1,0-0.2,0-0.2,0l-2.4,0.1
					c-2.3,0.1-2.6,1.8-2.7,1.8l-5.9,24.4c0,0.1-0.3,0.9,0.2,1.6c0.2,0.3,0.7,0.7,1.7,0.7h0l2.9,0c1.8,0.1,2.5-1.1,2.6-1.9l1.2-4.9
					l1.5-5.5c0.2-0.5,0.4-0.7,0.4-0.7c0.1,0,0.2,0.2,0.2,0.2c0,0,1.6,3,2.3,4.5c0.5,1.1,1.3,1.3,1.8,1.3c0.7,0,1.2-0.4,1.4-0.5l1-1
					c2-2.1,3-2.8,3.4-3c0,0.1,0,0.2-0.1,0.2c-0.1,0.3-2.2,8.4-2.4,9.4c-0.1,0.7,0.1,1.2,0.3,1.4c0.4,0.5,0.9,0.5,1,0.6l3.5,0
					c2.2,0,2.8-1.8,2.8-1.9l5.9-23.8C104.6,8.3,104.5,7.6,104.1,7.1z M95.6,34L95.6,34L95.6,34L95.6,34z M154.2,26.6
					c-0.4-0.2-1.3-0.8-1.7-1.2c-0.1-0.1-0.1-0.2-0.1-0.2c0-0.1,0.1-0.4,0.2-0.4l1.9-1.8c4-3,4.4-9.7,4.4-10c-0.1-5.2-5-6.6-7.6-6.7
					l-7.7,0c-2,0-2.8,1.4-3,2.2l-6.1,23.9c0,0.1-0.3,1,0.2,1.6c0.2,0.3,0.7,0.7,1.6,0.7c0,0,0,0,0,0l4.3,0.1c0.5-0.1,1.6-0.5,1.7-2
					c0,0,0-2.1,1-3.7c0.2-0.4,0.5-0.4,0.5-0.4c0.7,0,1.9,1.1,2.6,2.3c1.2,2.2,3,3.6,4.8,3.9c0.1,0,0.3,0,0.4,0
					c1.7,0,2.7-1.8,2.9-3.5l0.6-2.5C155.5,27.8,155.1,27.1,154.2,26.6z M150.2,17.4L150.2,17.4c-0.1,0.3-0.8,1.2-0.8,1.2
					c-1,1.3-2.3,1.5-3.1,1.5c-0.9,0.1-0.6-0.9-0.6-0.9l0.9-3.8c0,0,0.3-1.3,1.6-1.2l1.2,0.2c0,0,1.2,0,1.1,1.7
					C150.6,16.1,150.5,16.8,150.2,17.4z M115.9,8.8l-5.7,23.5c-0.3,2.2-2,2.5-2.1,2.5l0,0l-4.1,0c-0.9,0-1.3-0.4-1.5-0.8
					c-0.5-0.7-0.1-1.6-0.1-1.7l6-24c0.2-0.7,0.9-1.9,2.6-1.9l3.4,0c0.3,0,0.8,0.1,1.3,0.5c0.4,0.4,0.5,1,0.4,1.6L115.9,8.8z"/>
			</g>
		</g>
		<g>
			<path class="st4" d="M176.6,0.1c0.1,0,0.3,0,0.4,0l9.5,0c0,0,0,0,0,0c0.3,0,7.4,0.1,8,5.5c0.6,5.5-3.2,8.7-3.2,8.7
				s-1.1,0.8-1.7,1.1c0,0-0.6,0.2,0,0.6c0,0,3.6,1.9,1.8,7.8c0,0-2,7.7-9.2,8.3c0,0-0.9,0.1-2.6,0.1l-10.7,0l-1.2,0
				c-1.2-0.1-0.8-2.4-0.8-2.4l7-28.1C173.9,1.8,174.1,0.1,176.6,0.1 M183.2,11.2c0,0,2.5-0.2,2.6-2c0.1-1.8-1.5-1.8-1.5-1.8h0
				l-1-0.1c0,0-0.1,0-0.4,0c-0.6,0-1.9,0.2-2.3,1.6c0,0-0.8,2.2,0.5,2.3L183.2,11.2 M178.5,24.7c1.7,0,3.5-0.1,4.4-1.2
				c1-1.2,0.6-3.1-0.2-3.4c-0.5-0.2-1.4-0.4-2.4-0.4c-0.6,0-1.2,0.1-1.8,0.3c0,0-0.8,0.2-1.2,1.1l0,0.1l-0.5,2c0,0-0.6,1.6,1.3,1.6
				C178.2,24.7,178.4,24.7,178.5,24.7 M176.6-2.2L176.6-2.2c-3.4,0-4.8,2.2-5,3.5l-6.9,28c0,0.1,0,0.1,0,0.2c-0.1,0.8-0.3,2.7,0.8,4
				c0.6,0.7,1.3,1.1,2.2,1.1c0,0,0.1,0,0.1,0c0,0,0,0,0,0l1.2,0l10.6,0c0,0,0,0,0,0c0,0,0,0,0.1,0c1.7,0,2.6-0.1,2.8-0.1
				c8.5-0.7,11-9.1,11.2-10c1.2-4.1,0.3-6.8-0.8-8.4c0.7-0.6,4.6-4.4,4-10.7c-0.3-3.1-2.3-5.5-5.6-6.7c-2.2-0.8-4.3-0.9-4.7-0.9
				c0,0,0,0,0,0l-9.4,0C177-2.2,176.8-2.2,176.6-2.2L176.6-2.2L176.6-2.2z"/>
		</g>
	</g>
</g>
<g id="Spot" class="st0">
	<g class="st3">
		<g>
			<path class="st2" d="M168.9,33.8l-1.3,0c-0.7,0-1.3-0.3-1.7-0.9c-0.9-1.1-0.7-2.7-0.6-3.4c0,0,0-0.1,0-0.1l6.9-28
				c0.2-1.1,1.4-2.9,4.3-2.9c0.2,0,0.3,0,0.5,0l9.4,0c0.4,0,2.4,0,4.5,0.8c3,1.1,4.9,3.3,5.2,6.1c0.6,5.9-3,9.4-3.8,10.1l-0.5,0.4
				l0.3,0.5c0.9,1.4,1.8,3.9,0.7,7.8c-0.3,0.9-2.6,8.8-10.6,9.5c-0.3,0-1.3,0.1-2.7,0.1h0L168.9,33.8z"/>
		</g>
		<g>
			<g>
				<path class="st5" d="M48.7,26.2C48.3,26,47.4,25.3,47,25c-0.1-0.1-0.1-0.2-0.1-0.2c0-0.1,0.1-0.4,0.2-0.4l1.9-1.8
					c4-3,4.4-9.7,4.4-10c-0.1-5.2-5-6.6-7.6-6.7l-7.7,0c-2,0-2.9,1.4-3,2.2L29,32c0,0.1-0.3,1,0.2,1.6c0.2,0.3,0.7,0.7,1.6,0.7
					c0,0,0,0,0,0l4.3,0.1c0.5-0.1,1.6-0.5,1.7-2c0,0,0-2.1,1-3.7c0.2-0.4,0.5-0.4,0.5-0.4c0.7,0,1.9,1.1,2.6,2.3
					c1.2,2.2,3,3.6,4.8,3.9c0.1,0,0.3,0,0.4,0c1.7,0,2.7-1.8,2.9-3.5l0.6-2.5C50,27.4,49.7,26.6,48.7,26.2z M44.7,17L44.7,17
					c-0.1,0.3-0.8,1.2-0.8,1.2c-1,1.3-2.3,1.5-3.1,1.5c-0.9,0.1-0.6-0.9-0.6-0.9l0.9-3.8c0,0,0.3-1.3,1.6-1.2l1.2,0.2
					c0,0,1.2,0,1.1,1.7C45.1,15.7,45,16.3,44.7,17z M72.2,17c0.2,0.3,0.4,0.8,0.2,1.7l-0.9,3.1c-0.2,0.7-1.1,2.1-3.1,2.1l-5.6-0.1
					c-0.1,0-1,0.1-1.2,1.2l-0.3,1.6c0,0.1-0.1,0.3,0,0.5c0.1,0.1,0.3,0.3,1.2,0.3l5.9-0.1c0.2,0,0.8,0,1.2,0.3
					c0.2,0.1,1.2,0.7,0.7,2.9l-0.5,2.6c0,0.5-0.6,1.8-2.9,1.7l-12.6,0c-0.9,0-1.4-0.4-1.7-0.7c-0.7-0.8-0.4-1.9-0.4-2.1L58,8.4
					c0.1-0.8,1-2.4,3.8-2.3c0.7,0,1.9,0,3.5,0c3.5,0,7.9-0.1,7.9-0.1c0.3,0,0.9,0.1,1.4,0.6c0.4,0.4,0.4,1.1,0.3,1.8l-0.6,2.7
					c-0.1,0.2-0.8,2.4-3.7,2.1l-5.2-0.1c0,0-0.9,0.1-1,0.8L63.9,16c0,0,0,0.1,0,0.1c0,0,0.2,0.1,0.6,0.1l6.3,0
					C70.9,16.3,71.7,16.4,72.2,17z M29.4,1.8c-3.2-4-7.7-4.1-8.2-4.1c0,0,0,0,0,0L10.8-2.2C5.8-2.2,5,1,5,1.7l-7.3,29.9
					c0,0.2-0.2,1.5,0.4,2.3c0.3,0.4,0.7,0.5,1.2,0.5l4.8-0.1c1,0,2.8-0.7,3.3-3.2L8,27.4c0.2-1.7,1.2-2.6,3.2-2.6
					c0.4,0,0.7,0,0.8,0.1L13,25c0,0,0.1,0,0.3,0c1.4,0,6.1-0.2,9.8-2.5c4.2-2.7,6.6-8.1,6.8-8.3C30,13.8,32.8,6.1,29.4,1.8z
					 M-0.7,33.6L-0.7,33.6L-0.7,33.6L-0.7,33.6z M21.2,9.4c0.3,3.2-1.8,4.7-2.5,5.3c-0.7,0.6-2.7,1-4.8,0.7s-1.5-2.6-1.5-2.6
					l0.8-3.5c0.7-3.1,3.3-2.6,3.3-2.6l2.1,0.2C21.3,7.1,21.2,9.4,21.2,9.4z M134.3,18.9l-0.9,3.1c-0.2,0.7-1.1,2.1-3.1,2.1l-5.6-0.1
					c-0.1,0-1,0.1-1.2,1.2l-0.3,1.6c0,0.1-0.1,0.3,0,0.5c0.1,0.1,0.3,0.3,1.2,0.3l5.9-0.1c0.2,0,0.8,0,1.2,0.3
					c0.2,0.1,1.2,0.7,0.7,2.9l-0.5,2.6c0,0.5-0.6,1.8-2.9,1.7l-12.6,0c-0.9,0-1.4-0.4-1.7-0.7c-0.7-0.8-0.4-1.9-0.4-2.1l5.7-23.4
					c0.1-0.8,1-2.4,3.8-2.3c0.7,0,1.9,0,3.5,0c3.5,0,7.9-0.1,7.9-0.1c0,0,0,0,0,0c0.3,0,0.9,0.1,1.4,0.6c0.4,0.4,0.4,1.1,0.3,1.8
					l-0.6,2.8c-0.1,0.2-0.8,2.4-3.7,2.1l-5.3-0.1c0,0-0.9,0.1-1,0.8l-0.4,1.9c0,0,0,0.1,0,0.1c0,0,0.2,0.1,0.6,0.1l6.3,0
					c0.1,0,0.9,0,1.4,0.7C134.4,17.6,134.6,18.1,134.3,18.9z M104.1,7.1c-0.5-0.7-1.4-0.7-1.6-0.7h0l-2.2,0c-2.1-0.1-2.9,0.9-2.9,1
					l-7.2,8.9c-0.2,0.2-0.4,0.4-0.5,0.5c0,0,0,0,0-0.1l-3.7-8.9c-0.5-1.5-1.8-1.6-2.1-1.6c-0.1,0-0.2,0-0.2,0l-2.4,0.1
					c-2.3,0.1-2.6,1.8-2.7,1.8l-5.9,24.4c0,0.1-0.3,0.9,0.2,1.6c0.2,0.3,0.7,0.7,1.7,0.7h0l2.9,0c1.8,0.1,2.5-1.1,2.6-1.9l1.2-4.9
					l1.5-5.5c0.2-0.5,0.4-0.7,0.4-0.7c0.1,0,0.2,0.2,0.2,0.2c0,0,1.6,3,2.3,4.5c0.5,1.1,1.3,1.3,1.8,1.3c0.7,0,1.2-0.4,1.4-0.5l1-1
					c2-2.1,3-2.8,3.4-3c0,0.1,0,0.2-0.1,0.2c-0.1,0.3-2.2,8.4-2.4,9.4c-0.1,0.7,0.1,1.2,0.3,1.4c0.4,0.5,0.9,0.5,1,0.6l3.5,0
					c2.2,0,2.8-1.8,2.8-1.9l5.9-23.8C104.6,8.3,104.5,7.6,104.1,7.1z M95.6,34L95.6,34L95.6,34L95.6,34z M154.2,26.6
					c-0.4-0.2-1.3-0.8-1.7-1.2c-0.1-0.1-0.1-0.2-0.1-0.2c0-0.1,0.1-0.4,0.2-0.4l1.9-1.8c4-3,4.4-9.7,4.4-10c-0.1-5.2-5-6.6-7.6-6.7
					l-7.7,0c-2,0-2.8,1.4-3,2.2l-6.1,23.9c0,0.1-0.3,1,0.2,1.6c0.2,0.3,0.7,0.7,1.6,0.7c0,0,0,0,0,0l4.3,0.1c0.5-0.1,1.6-0.5,1.7-2
					c0,0,0-2.1,1-3.7c0.2-0.4,0.5-0.4,0.5-0.4c0.7,0,1.9,1.1,2.6,2.3c1.2,2.2,3,3.6,4.8,3.9c0.1,0,0.3,0,0.4,0
					c1.7,0,2.7-1.8,2.9-3.5l0.6-2.5C155.5,27.8,155.1,27.1,154.2,26.6z M150.2,17.4L150.2,17.4c-0.1,0.3-0.8,1.2-0.8,1.2
					c-1,1.3-2.3,1.5-3.1,1.5c-0.9,0.1-0.6-0.9-0.6-0.9l0.9-3.8c0,0,0.3-1.3,1.6-1.2l1.2,0.2c0,0,1.2,0,1.1,1.7
					C150.6,16.1,150.5,16.8,150.2,17.4z M115.9,8.8l-5.7,23.5c-0.3,2.2-2,2.5-2.1,2.5l0,0l-4.1,0c-0.9,0-1.3-0.4-1.5-0.8
					c-0.5-0.7-0.1-1.6-0.1-1.7l6-24c0.2-0.7,0.9-1.9,2.6-1.9l3.4,0c0.3,0,0.8,0.1,1.3,0.5c0.4,0.4,0.5,1,0.4,1.6L115.9,8.8z"/>
			</g>
		</g>
		<g>
			<path class="st5" d="M176.6,0.1c0.1,0,0.3,0,0.4,0l9.5,0c0,0,0,0,0,0c0.3,0,7.4,0.1,8,5.5c0.6,5.5-3.2,8.7-3.2,8.7
				s-1.1,0.8-1.7,1.1c0,0-0.6,0.2,0,0.6c0,0,3.6,1.9,1.8,7.8c0,0-2,7.7-9.2,8.3c0,0-0.9,0.1-2.6,0.1l-10.7,0l-1.2,0
				c-1.2-0.1-0.8-2.4-0.8-2.4l7-28.1C173.9,1.8,174.1,0.1,176.6,0.1 M183.2,11.2c0,0,2.5-0.2,2.6-2c0.1-1.8-1.5-1.8-1.5-1.8h0
				l-1-0.1c0,0-0.1,0-0.4,0c-0.6,0-1.9,0.2-2.3,1.6c0,0-0.8,2.2,0.5,2.3L183.2,11.2 M178.5,24.7c1.7,0,3.5-0.1,4.4-1.2
				c1-1.2,0.6-3.1-0.2-3.4c-0.5-0.2-1.4-0.4-2.4-0.4c-0.6,0-1.2,0.1-1.8,0.3c0,0-0.8,0.2-1.2,1.1l0,0.1l-0.5,2c0,0-0.6,1.6,1.3,1.6
				C178.2,24.7,178.4,24.7,178.5,24.7 M176.6-2.2L176.6-2.2c-3.4,0-4.8,2.2-5,3.5l-6.9,28c0,0.1,0,0.1,0,0.2c-0.1,0.8-0.3,2.7,0.8,4
				c0.6,0.7,1.3,1.1,2.2,1.1c0,0,0.1,0,0.1,0c0,0,0,0,0,0l1.2,0l10.6,0c0,0,0,0,0,0c0,0,0,0,0.1,0c1.7,0,2.6-0.1,2.8-0.1
				c8.5-0.7,11-9.1,11.2-10c1.2-4.1,0.3-6.8-0.8-8.4c0.7-0.6,4.6-4.4,4-10.7c-0.3-3.1-2.3-5.5-5.6-6.7c-2.2-0.8-4.3-0.9-4.7-0.9
				c0,0,0,0,0,0l-9.4,0C177-2.2,176.8-2.2,176.6-2.2L176.6-2.2L176.6-2.2z"/>
		</g>
	</g>
</g>
</svg>
